<?xml version="1.0" standalone="no"?>
<!DOCTYPE svg PUBLIC "-//W3C//DTD SVG 20010904//EN"
 "http://www.w3.org/TR/2001/REC-SVG-20010904/DTD/svg10.dtd">
<svg version="1.0" xmlns="http://www.w3.org/2000/svg"
 width="128.000000pt" height="128.000000pt" viewBox="0 0 128.000000 128.000000"
 preserveAspectRatio="xMidYMid meet">

<g transform="translate(0.000000,128.000000) scale(0.100000,-0.100000)"
fill="#000000" stroke="none">
<path d="M1065 1265 c-16 -9 -84 -72 -150 -141 l-120 -125 -292 98 -293 98
-84 -84 c-47 -47 -83 -88 -81 -91 2 -4 110 -72 239 -151 130 -79 236 -147 236
-150 0 -3 -44 -52 -97 -108 l-98 -102 -78 12 -78 13 -79 -79 c-44 -44 -80 -82
-80 -85 0 -3 59 -26 132 -51 l131 -46 46 -131 c25 -73 48 -132 51 -132 3 0 41
36 85 80 l79 79 -13 78 -12 78 102 98 c56 53 105 97 108 97 3 0 71 -106 150
-236 79 -129 147 -237 151 -239 3 -2 44 34 91 81 l84 84 -98 293 -98 292 130
125 c72 69 135 138 140 153 47 125 -87 251 -204 192z m117 -82 c11 -10 18 -30
18 -54 0 -35 -8 -45 -140 -171 -77 -73 -140 -140 -140 -148 0 -9 42 -142 94
-297 l94 -281 -37 -36 -37 -36 -148 240 c-82 133 -152 239 -156 238 -4 -2 -73
-67 -154 -144 l-147 -142 12 -81 c12 -80 12 -81 -11 -106 -13 -14 -27 -22 -30
-18 -4 5 -19 44 -35 88 -15 44 -33 85 -39 91 -6 6 -47 24 -91 39 -44 16 -83
31 -88 35 -4 3 4 17 18 30 24 23 27 23 107 12 l82 -12 140 146 c78 81 142 150
144 154 2 4 -105 74 -238 156 l-240 148 36 37 36 37 281 -94 c155 -52 288 -94
297 -94 8 0 75 63 148 140 123 129 136 140 169 140 20 0 45 -7 55 -17z"/>
</g>
</svg>
